<?xml version="1.0" encoding="utf-8"?>
<!-- Generator: Adobe Illustrator 24.0.0, SVG Export Plug-In . SVG Version: 6.00 Build 0)  -->
<svg version="1.1" id="Layer_1" xmlns="http://www.w3.org/2000/svg" xmlns:xlink="http://www.w3.org/1999/xlink" x="0px" y="0px"
	 viewBox="0 0 50 50" style="enable-background:new 0 0 50 50;" xml:space="preserve">
<style type="text/css">
	.st0{fill:none;stroke:#CC5428;stroke-miterlimit:10;}
	.st1{fill:#B57B5A;}
	.st2{fill:#5A2E15;}
</style>
<g id="Artwork_5" transform="translate(200.595 214.519)">
	<g id="Group_2" transform="translate(-98.64 -60.556)">
		<g id="Group_1" transform="translate(-3 -3)">
			<path id="Path_49" class="st0" d="M-57.8-136.9c0-1.4-1.1-2.6-2.6-2.6h-32.9c-1.4,0-2.6,1.1-2.6,2.6v5c0,10.4,8.3,19.2,18.7,19.3
				c10.5,0.2,19.2-8.2,19.3-18.7c0-0.1,0-0.2,0-0.3L-57.8-136.9"/>
			<path id="Path_50" class="st0" d="M-58.1-136.7c3.5,0.1,6.2,3.1,6,6.6c-0.1,3.5-3.1,6.2-6.6,6c-0.3,0-0.7-0.1-1-0.1"/>
			<path id="Path_51" class="st0" d="M-57.9-133.6c1.7,0,3.1,1.5,3.1,3.2s-1.5,3.1-3.2,3.1l-0.6-0.1"/>
			<path id="Path_52" class="st0" d="M-55.3-128.8"/>
			<path id="Path_53" class="st0" d="M-57.8-129.5"/>
		</g>
	</g>
</g>
<path id="Intersection_2" class="st1" d="M5.3,21.7c0-0.1,0-0.1,0-0.2l0,0l0,0c0.4-0.2,5.3-2.3,11-2c6,0.4,7.3,3.1,13,3.6
	c5.6,0.5,9.6-1.5,9.7-1.6c0,0.1,0,0.1,0,0.2c-0.1,8.5-7.6,15.4-16.9,15.4S5.4,30.2,5.3,21.7z"/>
<path id="Intersection_1" class="st2" d="M5.3,21.7c0-0.1,0-0.1,0-0.2c0.1,0.1,4.1,2.1,9.7,1.6c5.7-0.5,7-3.2,13-3.6
	c5.7-0.4,10.6,1.8,11,2l0,0l0,0l0,0c0,0.1,0,0.1,0,0.2c-0.1,8.5-7.6,15.4-16.9,15.4S5.4,30.2,5.3,21.7z"/>
</svg>
